/* XPM */
static char * bitcoin16_xpm[] = {
"16 16 91 1",
" 	c None",
".	c #FDDB4C",
"+	c #FDDC4D",
"@	c #FDDC4E",
"#	c #FDDD57",
"$	c #FDDA47",
"%	c #FDDA46",
"&	c #FDD635",
"*	c #FDD530",
"=	c #FDD636",
"-	c #FCDA47",
";	c #FBDC53",
">	c #FDDA45",
",	c #FDD52C",
"'	c #F1CB29",
")	c #F0CA29",
"!	c #FCD946",
"~	c #FDDE57",
"{	c #FDD83C",
"]	c #FDDA49",
"^	c #B79A1F",
"/	c #3D330A",
"(	c #3A310A",
"_	c #766C43",
":	c #DEC249",
"<	c #FDE787",
"[	c #FEEEAD",
"}	c #605110",
"|	c #000000",
"1	c #030300",
"2	c #424036",
"3	c #B5B4B2",
"4	c #F9DF71",
"5	c #FDD738",
"6	c #FEEB9D",
"7	c #FEF1BD",
"8	c #FEF0B7",
"9	c #BCA646",
"0	c #3D340A",
"a	c #201B05",
"b	c #8E7818",
"c	c #D9CB8E",
"d	c #F2F1EF",
"e	c #FDE376",
"f	c #FEEDA8",
"g	c #FDEA98",
"h	c #BCA440",
"i	c #3E340A",
"j	c #262006",
"k	c #A1871C",
"l	c #FADC5D",
"m	c #F4ECCC",
"n	c #FDD737",
"o	c #FDECA3",
"p	c #BCA955",
"q	c #302808",
"r	c #A98E1D",
"s	c #FADC5C",
"t	c #F4EAC0",
"u	c #F3EEDB",
"v	c #F2F1ED",
"w	c #FDD52B",
"x	c #FDE479",
"y	c #BDAA5C",
"z	c #39300A",
"A	c #B3971F",
"B	c #FADB5B",
"C	c #F4EABF",
"D	c #F4EBC5",
"E	c #F9DC62",
"F	c #F7E28A",
"G	c #F9DE6F",
"H	c #BCA027",
"I	c #BB9D20",
"J	c #FADB59",
"K	c #F4EABD",
"L	c #FCD636",
"M	c #E0BD27",
"N	c #796615",
"O	c #57490F",
"P	c #BEA021",
"Q	c #FBD73E",
"R	c #F7E38C",
"S	c #F5E8B0",
"T	c #F9DD62",
"U	c #FCD945",
"V	c #FCD52C",
"W	c #FCD635",
"X	c #FDDD53",
"Y	c #FCDA4D",
"Z	c #FCDB4D",
"     .+@@+.     ",
"   #$%&**=%-#   ",
"  ;>,,,,,,,,>;  ",
" #>,,,,')))))!~ ",
" -,,,{]^/(((_:- ",
".%,,{<[>}|1234%.",
"+=,567890abcd4=+",
"@*5efghijklmd4*@",
"@*n7opiqrstuv4*@",
"+=wxyizABCDEFG=+",
".%,HiiIJKDE,wL%.",
" -MNOPQRST,,,,- ",
" ~U)',VWW,,,,>~ ",
"  X>,,,,,,,,>X  ",
"   ~-%=**=%-~   ",
"     .YZZY.     "};
