/* XPM */
static char * bitcoin32_xpm[] = {
"32 32 204 2",
"  	c None",
". 	c #FDD52C",
"+ 	c #FCD634",
"@ 	c #FCD73D",
"# 	c #FDDA42",
"$ 	c #FDD52B",
"% 	c #FDD943",
"& 	c #FCDE5B",
"* 	c #FDE066",
"= 	c #FDE069",
"- 	c #FDE065",
"; 	c #FDDF60",
"> 	c #FDE169",
", 	c #FCD943",
"' 	c #FCDB4B",
") 	c #FDDF61",
"! 	c #FDDF62",
"~ 	c #FDDB4F",
"{ 	c #FDD736",
"] 	c #FDD52D",
"^ 	c #FDD42B",
"/ 	c #FCDA4B",
"( 	c #FDD52E",
"_ 	c #FDDE5F",
": 	c #FDD42C",
"< 	c #FDD944",
"[ 	c #FCD42E",
"} 	c #FDD73B",
"| 	c #FDDE5E",
"1 	c #FDDE5D",
"2 	c #FDDF5F",
"3 	c #FDDC51",
"4 	c #FDDC52",
"5 	c #FCD73B",
"6 	c #FCD42D",
"7 	c #FDD329",
"8 	c #FBD42B",
"9 	c #FAD22B",
"0 	c #FAD32B",
"a 	c #FBD329",
"b 	c #FCDB4A",
"c 	c #FCD42B",
"d 	c #D4B224",
"e 	c #6C5B12",
"f 	c #5E4F10",
"g 	c #615212",
"h 	c #C7AF4A",
"i 	c #FBD42E",
"j 	c #FDDD55",
"k 	c #FDE16C",
"l 	c #FDD634",
"m 	c #8B7518",
"n 	c #0D0B02",
"o 	c #000000",
"p 	c #030302",
"q 	c #757575",
"r 	c #EFE1A8",
"s 	c #FCD52F",
"t 	c #FCD942",
"u 	c #FDDF63",
"v 	c #FEF5D0",
"w 	c #FEFAE8",
"x 	c #FDE78B",
"y 	c #0C0A02",
"z 	c #030303",
"A 	c #777776",
"B 	c #ECECEC",
"C 	c #F5E8AE",
"D 	c #FCD842",
"E 	c #FCDD5A",
"F 	c #FDDC50",
"G 	c #FDD738",
"H 	c #FDE47C",
"I 	c #FEF9E1",
"J 	c #FEF5D1",
"K 	c #FEF3C4",
"L 	c #FDDC54",
"M 	c #F3CD2A",
"N 	c #41370B",
"O 	c #181505",
"P 	c #797976",
"Q 	c #EDEDED",
"R 	c #F2F2F2",
"S 	c #FDD737",
"T 	c #FDE067",
"U 	c #FEF1BD",
"V 	c #FEEEAB",
"W 	c #FEF0B5",
"X 	c #FEFCF1",
"Y 	c #FEF5CE",
"Z 	c #FEF0B9",
"` 	c #F4D347",
" .	c #776414",
"..	c #010100",
"+.	c #2E2708",
"@.	c #7F6B16",
"#.	c #C4AA39",
"$.	c #F1EBD3",
"%.	c #FCD633",
"&.	c #FDD941",
"*.	c #FEF2BF",
"=.	c #FEF6D4",
"-.	c #FEF8DF",
";.	c #FDE787",
">.	c #FEF2C3",
",.	c #FDE890",
"'.	c #F4D34A",
").	c #453A0B",
"!.	c #C0A121",
"~.	c #FADB5B",
"{.	c #F2F0E6",
"].	c #FDD733",
"^.	c #FCD83D",
"/.	c #FDD83E",
"(.	c #FDE78A",
"_.	c #FEFAEA",
":.	c #FEF6D5",
"<.	c #FDDE5B",
"[.	c #F4D75D",
"}.	c #4B3F0D",
"|.	c #C7A722",
"1.	c #FCD530",
"2.	c #F6E498",
"3.	c #F2F1F1",
"4.	c #FCD83C",
"5.	c #FDD942",
"6.	c #FEF4CA",
"7.	c #FEEDA8",
"8.	c #F4CD2A",
"9.	c #52450E",
"0.	c #CDAD23",
"a.	c #FCD52E",
"b.	c #F7E38F",
"c.	c #F2F1EF",
"d.	c #FDD636",
"e.	c #FEF2C0",
"f.	c #FDEB9F",
"g.	c #FEEDA7",
"h.	c #F4D44F",
"i.	c #594B0F",
"j.	c #F7E38D",
"k.	c #F2F1EE",
"l.	c #FDE88E",
"m.	c #FEF8DE",
"n.	c #FEF9E5",
"o.	c #FEF2C1",
"p.	c #F4D75A",
"q.	c #5F5010",
"r.	c #DAB825",
"s.	c #FCD52D",
"t.	c #F7E28A",
"u.	c #F2F1EC",
"v.	c #F4EBC3",
"w.	c #F2F0E8",
"x.	c #FEF9E4",
"y.	c #FDE581",
"z.	c #F4D243",
"A.	c #665611",
"B.	c #E1BE27",
"C.	c #FCD52C",
"D.	c #F7E288",
"E.	c #F2F0EB",
"F.	c #F6E59E",
"G.	c #FBD73B",
"H.	c #F7E285",
"I.	c #F2F0E7",
"J.	c #F4D552",
"K.	c #6D5B12",
"L.	c #E8C328",
"M.	c #F7E286",
"N.	c #F2F0E9",
"O.	c #F6E6A4",
"P.	c #FDD32B",
"Q.	c #F4D13E",
"R.	c #736114",
"S.	c #EEC829",
"T.	c #F8E183",
"U.	c #FADA4F",
"V.	c #040300",
"W.	c #7A6715",
"X.	c #F8E181",
"Y.	c #F2F0E5",
"Z.	c #FBD32B",
"`.	c #070601",
" +	c #816C16",
".+	c #F8D02B",
"++	c #F8E17F",
"@+	c #F2EFE3",
"#+	c #FDD945",
"$+	c #FDDB4B",
"%+	c #C9A922",
"&+	c #625210",
"*+	c #605110",
"=+	c #957D19",
"-+	c #FBD846",
";+	c #F6E495",
">+	c #F6E6A6",
",+	c #FDDB4A",
"'+	c #FDD42A",
")+	c #FDDF5E",
"!+	c #FDD73A",
"~+	c #FCDE5A",
"{+	c #FDD734",
"]+	c #FCD841",
"                        . + @ # # @ + .                         ",
"                  $ % & * = - ; ; - > * & , $                   ",
"              $ ' ) ! ~ { ] $ ^ ^ $ ] { ~ ! ) / $               ",
"            ( _ ; % ^ . . . . . . . . . . : < ; _ [             ",
"          } | 1 : . . . . . . . . . . . . . . : 1 2 }           ",
"        } | 3 . . . . . . . . . . . . . . . . . . 4 | 5         ",
"      6 | 3 . . . . . . . . . . . . . . . . . . . . 4 | ]       ",
"    7 _ 1 . . . . . . . . . 8 9 9 9 9 9 9 9 9 9 9 9 0 1 _ a     ",
"    b ; . . . . . . . . $ c d e f f f f f f f f f g h i ; b     ",
"  $ ) < . . . . . . . j k l c m n o o o o o o o p q r s < ) $   ",
"  t ! : . . . . . . u v w x . c m y o o o o o z A B C s . ! D   ",
"  E F . . . . . . G H I J K L . M N o o o o O P Q R C s . F E   ",
"$ * S . . . . . T U V W X Y Z `  ...o o +.@.#.$.R R C s . S * $ ",
"%.= ] . . . . &.*.=.-.;.>.,.'. ...o o ).!.c ~.{.R R C s . ] = ].",
"^.* . . . . ~ /.(._.:.F <.[. ...o o }.|.. 1.2.3.R R C s . . * 4.",
"5.) ^ . . % 6.Z - 7.6./.8. ...o o 9.0.. a.b.c.R R R C s . ^ ) D ",
"5.) ^ . . d.e.-.:.f.g.h. ...o o i.d . a.j.k.R R R R C s . ^ ) D ",
"^.* . . . : l.m.n.o.p. ...o o q.r.. s.t.u.R R v.w.R C s . . * 4.",
"%.= ] . . . <.x.y.z. ...o o A.B.. C.D.E.R R F.G.H.I.C s . ] = ].",
"$ * S . . . { f.J. ...o o K.L.. C.M.N.R R F.5 . C.H.O.s . S - P.",
"  E F . . . . Q. ...o ..R.S.. . T.I.R R F.5 . . . C.U.s.. F E   ",
"  D ! . . . 8. ...o V.W.M . $ X.Y.R R F.5 . . . . . C.. . ! D   ",
"  Z.) < . 8. ...o `. +.+. $ ++@+R R F.5 . . . . . . . . #+) ^   ",
"    $+; 8 %+&+*+&+=+0 . $ -+;+>+>+t.5 . . . . . . . . . ; ,+    ",
"    '+_ 1 0 9 9 9 c . . . C.s.s.s.s.. . . . . . . . . 1 _ '+    ",
"      s.)+4 . . . . . . . . . . . . . . . . . . . . 4 )+6       ",
"        5 )+4 . . . . . . . . . . . . . . . . . . 4 | !+        ",
"          5 _ 1 . . . . . . . . . . . . . . . . 1 _ !+          ",
"            ] _ ; < : . . . . . . . . . . : < ; _ s.            ",
"              a b ) ! ~ S ] . ^ ^ . ] S F ! ) b '+              ",
"                  $ 5.~+* = - ) ) - = * ~+5.$                   ",
"                        $ {+^.]+]+@ l P.                        "};
